<svg xmlns:xlink="http://www.w3.org/1999/xlink" data-v-a6972663="" xmlns="http://www.w3.org/2000/svg" class="ms-logo"
  width="60" height="65" viewBox="140 5 63.3 55">
  <path class="cls-2"
    d="m203.3,10.99s-3.21,6.41-9.62,10.41c0,0,3.94-.81,7.18,3.6,0,0-3.36-1.14-5.14.48,0,0,5.65,3.32,6.11,11.6.3,5.47.25,7.22,1.04,12.93-.15-1.03-4.19-4.22-6.37-6.24-2.31-2.15-3.56-4.48-4.61-7.74,0,0,1.5,3.04.37,8.76-1.01,5.07-4.31,9.68-7.52,13.15-2.45,2.65-4.82,5.17-6.24,6.32.83-3.38,2.07-5.5,1.51-12.12-.41-4.87-1.08-10.47,2.05-15.82,0,0-4.56,9.64-23.69,7.87-2.38-.22-7.11-.47-10.1-.54,0,0,5.59-1.66,12.55-9.85,0,0,6.04-7.44,16.05-6.57,0,0-8.84-.58-15.49-8.29,0,0-4.91-5.36-11.55-7.43,0,0,11.46.22,13.98.18,3.51-.06,12.03.4,17.01,5.52,0,0-3.63-2.94-5-10.96-.4-2.36-1.59-4.27-3.02-6.24,0,0,2.01,1.26,4.56,2.53,4.41,2.2,11.06,5.13,12.17,13.8,0,0,2.18-1.34,1.82-5.64,0,0,4.21,3.16,1.58,9.24,0,0,3.06-1.49,7.34-8.82,0,0,1.4-3,3.03-.12Z"
    fill="#C03E30"></path>
</svg>
